<svg width="540" height="160" viewBox="0 0 540 160" fill="none" xmlns="http://www.w3.org/2000/svg">
<g clip-path="url(#clip0_1_10)">
<path d="M528.632 0H11.3684C5.08982 0 0 7.16344 0 16V144C0 152.837 5.08982 160 11.3684 160H528.632C534.91 160 540 152.837 540 144V16C540 7.16344 534.91 0 528.632 0Z" fill="#072B23"/>
<path d="M147.592 104V63.12H160.248L169.6 86.08H170.664L179.904 63.12H192.784V104H183.712V69.112L185 69.224L174.192 95.712H165.456L154.592 69.224L155.992 69.112V104H147.592ZM210.407 104.952C206.861 104.952 204.135 103.813 202.231 101.536C200.327 99.2213 199.375 95.7493 199.375 91.12V73.312H208.335V91.568C208.335 93.2107 208.802 94.5173 209.735 95.488C210.669 96.4587 211.919 96.944 213.487 96.944C215.093 96.944 216.399 96.44 217.407 95.432C218.415 94.424 218.919 93.0613 218.919 91.344V73.312H227.879V104H220.767V91.064H221.383C221.383 94.1627 220.973 96.7573 220.151 98.848C219.367 100.901 218.191 102.432 216.623 103.44C215.055 104.448 213.114 104.952 210.799 104.952H210.407ZM235.133 104V63.12H244.149V104H235.133ZM231.493 69.728V63.12H244.149V69.728H231.493ZM264.949 104.392C261.851 104.392 259.349 104.019 257.445 103.272C255.541 102.488 254.141 101.2 253.245 99.408C252.387 97.5787 251.957 95.1147 251.957 92.016V65.024H260.301V92.352C260.301 93.808 260.675 94.928 261.421 95.712C262.205 96.4587 263.307 96.832 264.725 96.832H269.261V104.392H264.949ZM247.309 79.864V73.312H269.261V79.864H247.309Z" fill="white"/>
<path d="M275.342 104V73.312H284.302V104H275.342ZM271.254 79.92V73.312H284.302V79.92H271.254ZM278.814 70.288C277.134 70.288 275.884 69.8587 275.062 69C274.278 68.104 273.886 66.984 273.886 65.64C273.886 64.2587 274.278 63.1387 275.062 62.28C275.884 61.384 277.134 60.936 278.814 60.936C280.494 60.936 281.726 61.384 282.51 62.28C283.332 63.1387 283.742 64.2587 283.742 65.64C283.742 66.984 283.332 68.104 282.51 69C281.726 69.8587 280.494 70.288 278.814 70.288ZM291.19 104V73.312H298.302V86.528H297.798C297.798 83.392 298.19 80.7787 298.974 78.688C299.758 76.5973 300.934 75.0293 302.502 73.984C304.07 72.9013 305.992 72.36 308.27 72.36H308.662C310.976 72.36 312.899 72.9013 314.43 73.984C315.998 75.0293 317.174 76.5973 317.958 78.688C318.779 80.7787 319.19 83.392 319.19 86.528H317.006C317.006 83.392 317.398 80.7787 318.182 78.688C319.003 76.5973 320.198 75.0293 321.766 73.984C323.334 72.9013 325.256 72.36 327.534 72.36H327.926C330.24 72.36 332.182 72.9013 333.75 73.984C335.355 75.0293 336.568 76.5973 337.39 78.688C338.211 80.7787 338.622 83.392 338.622 86.528V104H329.662V86.024C329.662 84.344 329.214 82.9813 328.318 81.936C327.459 80.8907 326.227 80.368 324.622 80.368C323.016 80.368 321.747 80.9093 320.814 81.992C319.88 83.0373 319.414 84.4373 319.414 86.192V104H310.398V86.024C310.398 84.344 309.95 82.9813 309.054 81.936C308.195 80.8907 306.982 80.368 305.414 80.368C303.771 80.368 302.483 80.9093 301.55 81.992C300.616 83.0373 300.15 84.4373 300.15 86.192V104H291.19ZM344.86 115.2V73.312H351.972V86.584L351.02 86.528C351.169 83.4667 351.804 80.8907 352.924 78.8C354.044 76.672 355.556 75.0853 357.46 74.04C359.364 72.9573 361.511 72.416 363.9 72.416C366.028 72.416 367.951 72.808 369.668 73.592C371.423 74.376 372.916 75.4773 374.148 76.896C375.417 78.2773 376.369 79.92 377.004 81.824C377.676 83.6907 378.012 85.744 378.012 87.984V89.272C378.012 91.4747 377.695 93.5467 377.06 95.488C376.425 97.392 375.492 99.0533 374.26 100.472C373.065 101.891 371.591 103.011 369.836 103.832C368.119 104.616 366.14 105.008 363.9 105.008C361.585 105.008 359.495 104.541 357.628 103.608C355.799 102.637 354.324 101.181 353.204 99.24C352.084 97.2613 351.468 94.76 351.356 91.736L353.82 95.096V115.2H344.86ZM361.38 97.504C362.911 97.504 364.236 97.1307 365.356 96.384C366.513 95.6373 367.409 94.592 368.044 93.248C368.679 91.904 368.996 90.3547 368.996 88.6C368.996 86.8453 368.679 85.3147 368.044 84.008C367.409 82.7013 366.532 81.6933 365.412 80.984C364.292 80.2373 362.948 79.864 361.38 79.864C360.036 79.864 358.767 80.1813 357.572 80.816C356.377 81.4507 355.407 82.3653 354.66 83.56C353.951 84.7173 353.596 86.136 353.596 87.816V89.888C353.596 91.4933 353.969 92.8747 354.716 94.032C355.5 95.152 356.489 96.0107 357.684 96.608C358.879 97.2053 360.111 97.504 361.38 97.504ZM393.195 104.952C389.648 104.952 386.923 103.813 385.019 101.536C383.115 99.2213 382.163 95.7493 382.163 91.12V73.312H391.123V91.568C391.123 93.2107 391.59 94.5173 392.523 95.488C393.456 96.4587 394.707 96.944 396.275 96.944C397.88 96.944 399.187 96.44 400.195 95.432C401.203 94.424 401.707 93.0613 401.707 91.344V73.312H410.667V104H403.555V91.064H404.171C404.171 94.1627 403.76 96.7573 402.939 98.848C402.155 100.901 400.979 102.432 399.411 103.44C397.843 104.448 395.902 104.952 393.587 104.952H393.195ZM417.921 104V63.12H426.937V104H417.921ZM414.281 69.728V63.12H426.937V69.728H414.281ZM445.441 104.952C441.073 104.952 437.657 104.056 435.193 102.264C432.729 100.472 431.422 97.952 431.273 94.704H439.225C439.374 95.6747 439.953 96.552 440.961 97.336C442.006 98.0827 443.555 98.456 445.609 98.456C447.177 98.456 448.465 98.1947 449.473 97.672C450.518 97.112 451.041 96.328 451.041 95.32C451.041 94.424 450.649 93.7147 449.865 93.192C449.081 92.632 447.681 92.24 445.665 92.016L443.257 91.792C439.561 91.4187 436.779 90.392 434.913 88.712C433.083 87.032 432.169 84.8853 432.169 82.272C432.169 80.1067 432.71 78.296 433.793 76.84C434.875 75.384 436.369 74.2827 438.273 73.536C440.214 72.7893 442.417 72.416 444.881 72.416C448.838 72.416 452.03 73.2933 454.457 75.048C456.883 76.7653 458.153 79.2667 458.265 82.552H450.313C450.163 81.544 449.641 80.704 448.745 80.032C447.849 79.3227 446.523 78.968 444.769 78.968C443.387 78.968 442.286 79.2293 441.465 79.752C440.643 80.2747 440.233 80.984 440.233 81.88C440.233 82.7387 440.587 83.392 441.297 83.84C442.006 84.288 443.163 84.6053 444.769 84.792L447.177 85.016C450.947 85.4267 453.878 86.472 455.969 88.152C458.059 89.832 459.105 92.0907 459.105 94.928C459.105 96.9813 458.545 98.7733 457.425 100.304C456.305 101.797 454.718 102.955 452.665 103.776C450.611 104.56 448.203 104.952 445.441 104.952ZM478.462 105.064C475.774 105.064 473.385 104.653 471.294 103.832C469.203 102.973 467.43 101.816 465.974 100.36C464.555 98.904 463.473 97.2427 462.726 95.376C461.979 93.472 461.606 91.4747 461.606 89.384V88.096C461.606 85.968 461.979 83.952 462.726 82.048C463.51 80.1067 464.63 78.408 466.086 76.952C467.579 75.496 469.371 74.3573 471.462 73.536C473.553 72.6773 475.886 72.248 478.462 72.248C481.113 72.248 483.465 72.6773 485.518 73.536C487.609 74.3573 489.382 75.496 490.838 76.952C492.294 78.408 493.414 80.1067 494.198 82.048C494.982 83.952 495.374 85.968 495.374 88.096V89.384C495.374 91.4747 495.001 93.472 494.254 95.376C493.507 97.2427 492.406 98.904 490.95 100.36C489.531 101.816 487.777 102.973 485.686 103.832C483.595 104.653 481.187 105.064 478.462 105.064ZM478.462 97.504C480.217 97.504 481.673 97.1307 482.83 96.384C483.987 95.6373 484.865 94.592 485.462 93.248C486.097 91.904 486.414 90.4107 486.414 88.768C486.414 87.0133 486.097 85.4827 485.462 84.176C484.827 82.832 483.913 81.768 482.718 80.984C481.561 80.2 480.142 79.808 478.462 79.808C476.819 79.808 475.401 80.2 474.206 80.984C473.011 81.768 472.097 82.832 471.462 84.176C470.865 85.4827 470.566 87.0133 470.566 88.768C470.566 90.4107 470.865 91.904 471.462 93.248C472.059 94.592 472.955 95.6373 474.15 96.384C475.345 97.1307 476.782 97.504 478.462 97.504Z" fill="#D4AF37"/>
<path d="M43 102.25L59.875 68.5L76 91L92.125 68.5L109 102.25" stroke="#D4AF37" stroke-width="6.75" stroke-linecap="round" stroke-linejoin="round"/>
<path d="M76 65.5C80.5563 65.5 84.25 61.8063 84.25 57.25C84.25 52.6937 80.5563 49 76 49C71.4437 49 67.75 52.6937 67.75 57.25C67.75 61.8063 71.4437 65.5 76 65.5Z" fill="#D4AF37"/>
<path d="M69.25 59.125L76 49.375L82.75 59.125H69.25Z" fill="#D4AF37"/>
</g>
<defs>
<clipPath id="clip0_1_10">
<rect width="540" height="160" fill="white"/>
</clipPath>
</defs>
</svg>
